<?xml version="1.0" standalone="no"?>
<!DOCTYPE svg PUBLIC "-//W3C//DTD SVG 20010904//EN"
 "http://www.w3.org/TR/2001/REC-SVG-20010904/DTD/svg10.dtd">
<svg version="1.0" xmlns="http://www.w3.org/2000/svg"
 width="300.000000pt" height="276.000000pt" viewBox="0 0 300.000000 276.000000"
 preserveAspectRatio="xMidYMid meet">
<metadata>
Created by potrace 1.10, written by Peter Selinger 2001-2011
</metadata>
<g transform="translate(0.000000,276.000000) scale(0.100000,-0.100000)"
fill="#000000" stroke="none">
<path d="M1462 2707 c-27 -29 -28 -61 -2 -87 43 -43 110 -14 110 48 0 57 -68
82 -108 39z m68 -22 c17 -21 3 -57 -22 -53 -30 4 -45 32 -29 52 17 20 35 20
51 1z"/>
<path d="M1318 2464 c-167 -25 -374 -111 -508 -210 -252 -185 -419 -443 -486
-754 -27 -124 -25 -373 4 -492 104 -425 361 -727 750 -882 252 -101 559 -106
820 -15 392 138 672 447 783 864 26 97 37 341 21 461 -24 175 -108 387 -209
529 -273 381 -718 571 -1175 499z m367 -23 c104 -16 127 -22 213 -53 105 -38
225 -103 319 -174 74 -55 153 -144 153 -170 0 -9 5 -12 11 -9 5 4 19 -4 30
-17 11 -12 28 -32 38 -43 35 -42 91 -133 116 -190 15 -33 31 -68 37 -79 19
-35 59 -181 73 -271 25 -153 20 -293 -16 -436 -17 -68 -36 -133 -42 -144 -6
-11 -12 -26 -13 -34 -4 -24 -97 -201 -106 -201 -4 0 -8 -7 -8 -15 0 -9 -7 -18
-15 -21 -8 -4 -15 -11 -15 -18 0 -6 -15 -27 -33 -47 -17 -20 -43 -50 -57 -66
-41 -49 -171 -158 -230 -193 -87 -52 -200 -110 -200 -104 0 4 -6 1 -14 -6 -8
-6 -68 -25 -133 -42 -167 -43 -350 -48 -508 -13 -159 34 -308 93 -397 156 -14
11 -31 19 -37 19 -6 0 -11 4 -11 8 0 4 -20 21 -44 36 -25 15 -57 46 -72 67
-15 21 -33 39 -40 39 -7 0 -26 17 -41 38 -15 20 -31 39 -35 42 -4 3 -14 19
-22 35 -13 24 -16 26 -16 10 0 -13 -13 1 -35 38 -19 32 -35 62 -35 67 0 5 -6
15 -13 22 -34 36 -122 262 -142 363 -21 110 -21 345 0 444 28 136 46 185 122
350 35 74 121 190 202 272 274 274 644 398 1016 340z"/>
<path d="M1168 1664 c-121 -37 -180 -254 -70 -254 12 0 22 -6 22 -12 0 -10 25
-12 102 -10 161 5 143 44 140 -315 -3 -337 0 -355 51 -361 15 -2 27 -8 27 -13
0 -5 22 -9 50 -9 42 0 48 2 43 17 -4 11 -3 14 6 9 15 -9 78 56 97 99 7 16 16
30 21 30 7 0 11 123 12 443 l1 102 101 0 c65 0 98 4 94 10 -3 6 1 13 10 16 22
9 75 60 75 74 0 6 5 8 10 5 6 -4 10 -3 9 2 -4 15 13 43 22 37 5 -3 9 13 9 35
0 23 -4 41 -10 41 -5 0 -10 9 -10 19 0 11 -10 27 -22 35 -32 23 -718 22 -790
0z m792 -41 c-1 -60 -19 -108 -54 -140 -44 -41 -90 -53 -198 -53 l-88 0 0
-287 c0 -279 -1 -289 -23 -328 -28 -51 -92 -85 -159 -85 l-48 0 0 350 0 350
-162 2 -163 3 3 40 c5 63 36 121 79 149 l38 25 388 0 387 1 0 -27z"/>
<path d="M2516 1544 c-9 -8 -19 -27 -22 -42 -10 -42 -14 -44 -41 -22 -14 11
-31 20 -37 20 -16 0 -46 -52 -48 -84 -2 -27 -18 -37 -18 -11 0 24 -43 39 -69
26 -16 -9 -21 -22 -22 -51 -1 -22 -3 -44 -4 -50 -1 -5 -3 -14 -4 -19 -1 -10
-27 -9 -37 2 -13 13 -41 7 -59 -13 -20 -23 -24 -115 -5 -149 11 -22 63 -30 75
-11 11 19 25 -1 25 -35 0 -73 29 -106 79 -89 19 7 28 18 32 44 l6 35 3 -37 c1
-21 4 -42 5 -48 1 -5 3 -18 4 -27 2 -27 63 -29 86 -3 24 26 35 17 35 -29 0
-60 43 -83 74 -39 14 19 16 66 16 315 0 280 -1 294 -20 313 -24 24 -34 25 -54
4z m42 -12 c9 -7 12 -76 10 -313 l-3 -304 -22 -3 -23 -3 0 309 c0 170 3 312 7
315 8 9 15 9 31 -1z m-110 -302 c2 -249 -1 -276 -35 -248 -18 15 -19 468 -1
486 29 29 33 3 36 -238z m-120 -8 l2 -193 -22 3 c-23 3 -23 4 -26 183 -1 98 0
185 3 193 3 7 13 12 22 10 16 -3 18 -22 21 -196z m-123 -2 c0 -60 -3 -75 -15
-75 -12 0 -16 17 -18 78 -3 71 -1 78 15 75 15 -3 18 -14 18 -78z"/>
<path d="M441 1536 c-7 -9 -12 -91 -13 -252 -2 -378 -2 -372 27 -386 43 -20
70 21 75 112 1 24 1 24 14 -6 15 -34 33 -50 44 -39 4 4 1 10 -5 12 -10 4 -13
62 -13 248 0 237 5 274 31 248 10 -10 15 -467 6 -493 -8 -23 -15 -60 -12 -60
7 0 44 85 50 115 l7 30 14 -27 c10 -19 23 -28 39 -28 48 0 61 34 55 150 l-1
35 19 -31 c49 -77 106 -35 100 73 -2 44 -7 59 -25 70 -19 12 -25 12 -52 -1
-16 -9 -32 -16 -34 -16 -2 0 -4 23 -6 52 -3 61 -13 84 -43 94 -16 5 -27 0 -44
-19 -24 -28 -34 -20 -34 26 0 12 -7 31 -15 41 -8 10 -12 24 -9 30 3 6 0 4 -8
-5 -7 -8 -21 -18 -31 -22 -11 -4 -21 -16 -24 -27 -9 -35 -33 -24 -33 16 0 19
-5 44 -10 55 -12 22 -52 25 -69 5z m54 -18 c3 -13 4 -153 3 -313 -3 -282 -4
-290 -23 -290 -19 0 -20 8 -23 300 -1 165 0 305 3 312 8 21 34 15 40 -9z m50
-128 c-5 -9 -7 -259 -2 -305 1 -11 -2 -21 -8 -23 -11 -2 -18 306 -8 347 5 20
7 21 15 7 5 -9 6 -21 3 -26z m185 -27 c0 -32 2 -119 3 -193 l2 -135 -25 0 -25
0 2 185 c2 102 3 188 3 193 0 4 9 7 20 7 18 0 20 -7 20 -57z m118 -137 c2 -48
-1 -72 -10 -77 -24 -15 -38 12 -38 76 0 66 5 77 30 73 11 -3 16 -19 18 -72z"/>
<path d="M932 1258 c-17 -17 -15 -65 4 -72 33 -13 55 -6 65 20 16 45 -36 85
-69 52z m52 -24 c8 -21 -1 -34 -25 -34 -12 0 -19 7 -19 18 0 34 33 45 44 16z"/>
<path d="M1039 1249 c-18 -18 -19 -23 -6 -42 27 -42 87 -30 87 17 0 47 -45 61
-81 25z m59 -27 c3 -16 -2 -22 -17 -22 -24 0 -35 15 -27 36 9 23 40 13 44 -14z"/>
<path d="M1906 1251 c-21 -23 -15 -51 15 -69 19 -12 25 -11 51 8 27 20 31 20
47 6 24 -22 68 -20 80 2 16 29 -9 67 -43 67 -25 0 -37 -10 -52 -43 -1 -2 -13
8 -27 22 -31 31 -48 33 -71 7z m59 -26 c0 -21 -31 -33 -46 -18 -5 5 -7 17 -3
27 9 24 49 17 49 -9z m110 0 c0 -13 -8 -21 -22 -23 -17 -3 -23 2 -23 16 0 10
3 22 7 26 13 13 38 1 38 -19z"/>
<path d="M182 1403 c-7 -15 -7 -76 -2 -339 0 -18 31 -26 46 -13 17 14 20 319
4 350 -13 24 -37 25 -48 2z"/>
<path d="M2787 1404 c-4 -4 -7 -83 -7 -174 0 -175 6 -199 44 -184 15 6 16 26
14 183 -3 169 -4 176 -23 179 -12 2 -24 0 -28 -4z"/>
<path d="M45 1284 c-21 -22 -17 -103 7 -117 28 -18 48 9 48 62 0 64 -23 87
-55 55z"/>
<path d="M2927 1283 c-4 -3 -7 -30 -7 -60 0 -57 17 -76 49 -56 18 11 23 89 8
111 -10 13 -39 16 -50 5z"/>
</g>
</svg>
